<svg width="60" height="60" viewBox="0 0 60 60" fill="none" xmlns="http://www.w3.org/2000/svg">
<path d="M30 37.15C30.2667 37.15 30.5167 37.108 30.75 37.024C30.9833 36.9413 31.2 36.8 31.4 36.6L36.6 31.4C36.9667 31.0333 37.15 30.5667 37.15 30C37.15 29.4333 36.9667 28.9667 36.6 28.6C36.2333 28.2333 35.7667 28.05 35.2 28.05C34.6333 28.05 34.1667 28.2333 33.8 28.6L32 30.4V24C32 23.4333 31.8087 22.958 31.426 22.574C31.042 22.1913 30.5667 22 30 22C29.4333 22 28.9587 22.1913 28.576 22.574C28.192 22.958 28 23.4333 28 24V30.4L26.2 28.6C25.8333 28.2333 25.3667 28.05 24.8 28.05C24.2333 28.05 23.7667 28.2333 23.4 28.6C23.0333 28.9667 22.85 29.4333 22.85 30C22.85 30.5667 23.0333 31.0333 23.4 31.4L28.6 36.6C28.8 36.8 29.0167 36.9413 29.25 37.024C29.4833 37.108 29.7333 37.15 30 37.15ZM30 50C27.2333 50 24.6333 49.4747 22.2 48.424C19.7667 47.3747 17.65 45.95 15.85 44.15C14.05 42.35 12.6253 40.2333 11.576 37.8C10.5253 35.3667 10 32.7667 10 30C10 27.2333 10.5253 24.6333 11.576 22.2C12.6253 19.7667 14.05 17.65 15.85 15.85C17.65 14.05 19.7667 12.6247 22.2 11.574C24.6333 10.5247 27.2333 10 30 10C32.7667 10 35.3667 10.5247 37.8 11.574C40.2333 12.6247 42.35 14.05 44.15 15.85C45.95 17.65 47.3747 19.7667 48.424 22.2C49.4747 24.6333 50 27.2333 50 30C50 32.7667 49.4747 35.3667 48.424 37.8C47.3747 40.2333 45.95 42.35 44.15 44.15C42.35 45.95 40.2333 47.3747 37.8 48.424C35.3667 49.4747 32.7667 50 30 50Z" fill="#007F75"/>
</svg>
