<svg width="40" height="40" viewBox="0 0 40 40" fill="none" xmlns="http://www.w3.org/2000/svg">
<g clip-path="url(#clip0_420_1560)">
<path d="M15.0007 35.0007C15.0007 35.834 15.6673 36.6673 16.6673 36.6673H23.334C24.334 36.6673 25.0007 35.834 25.0007 35.0007V33.334H15.0007V35.0007ZM20.0007 3.33398C13.5007 3.33398 8.33398 8.50065 8.33398 15.0007C8.33398 19.0007 10.334 22.5007 13.334 24.5007V28.334C13.334 29.1673 14.0007 30.0007 15.0007 30.0007H25.0007C26.0007 30.0007 26.6673 29.1673 26.6673 28.334V24.5007C29.6673 22.334 31.6673 18.834 31.6673 15.0007C31.6673 8.50065 26.5007 3.33398 20.0007 3.33398Z" fill="#007F75"/>
</g>
<defs>
<clipPath id="clip0_420_1560">
<rect width="40" height="40" fill="white"/>
</clipPath>
</defs>
</svg>
