<svg width="124" height="124" viewBox="0 0 124 124" fill="none" xmlns="http://www.w3.org/2000/svg">
<path d="M54.9804 74.514C40.2907 74.514 28.325 62.8123 28.325 48.4157C28.325 46.5306 26.7704 45.0085 24.8451 45.0085H16.6303C14.7049 45.0085 13.1504 46.5306 13.1504 48.4157C13.1504 67.6298 27.0557 84.3305 45.9669 88.4079V98.2384C45.9669 100.123 47.5214 101.646 49.4468 101.646H54.9804C56.9057 101.646 58.4602 100.123 58.4602 98.2384V77.9071C58.4602 76.022 56.9057 74.5 54.9804 74.5V74.514Z" fill="#08A599"/>
<path d="M107.424 45.0085H99.338C97.4427 45.0085 95.9124 46.5302 95.9124 48.4149C95.9124 62.794 84.1478 74.5067 69.6736 74.5067C67.7783 74.5067 66.248 76.0284 66.248 77.913V98.2392C66.248 100.124 67.7783 101.646 69.6736 101.646H75.1207C77.016 101.646 78.5462 100.124 78.5462 98.2392V88.4111C97.1619 84.3347 110.85 67.6382 110.85 48.4288C110.85 46.5442 109.32 45.0225 107.424 45.0225V45.0085Z" fill="#08A599"/>
<path d="M83.2387 43.9473C83.2387 32.047 73.56 22.3545 61.6457 22.3545C49.7314 22.3545 40.0527 32.0331 40.0527 43.9473C40.0527 55.8616 49.7314 65.5402 61.6457 65.5402C73.56 65.5402 83.2387 55.8616 83.2387 43.9473ZM61.6457 52.7928C56.7717 52.7928 52.8002 48.8214 52.8002 43.9473C52.8002 39.0733 56.7717 35.1019 61.6457 35.1019C66.5198 35.1019 70.4912 39.0733 70.4912 43.9473C70.4912 48.8214 66.5198 52.7928 61.6457 52.7928Z" fill="#08A599"/>
</svg>
