<svg width="180" height="139" viewBox="0 0 180 139" fill="none" xmlns="http://www.w3.org/2000/svg">
<g clip-path="url(#clip0_420_497)">
<path d="M82.9473 46.8823C69.9723 46.8823 59.4033 36.3581 59.4033 23.41C59.4033 21.7146 58.0302 20.3457 56.3296 20.3457H49.0737C47.3731 20.3457 46 21.7146 46 23.41C46 40.6908 58.2822 55.7111 74.9859 59.3782V68.2196C74.9859 69.915 76.359 71.2839 78.0596 71.2839H82.9473C84.6479 71.2839 86.021 69.915 86.021 68.2196V49.9341C86.021 48.2386 84.6479 46.8697 82.9473 46.8697V46.8823Z" fill="white"/>
<path d="M130.551 20.3457H123.295C121.594 20.3457 120.221 21.7146 120.221 23.41C120.221 36.3455 109.665 46.8823 96.6772 46.8823C94.9766 46.8823 93.6035 48.2512 93.6035 49.9466V68.2321C93.6035 69.9276 94.9766 71.2965 96.6772 71.2965H101.565C103.265 71.2965 104.639 69.9276 104.639 68.2321V59.3908C121.342 55.7236 133.625 40.7034 133.625 23.4226C133.625 21.7272 132.251 20.3583 130.551 20.3583V20.3457Z" fill="white"/>
<path d="M108.898 19.5288C108.898 8.76599 100.118 0 89.3092 0C78.5009 0 69.7207 8.75343 69.7207 19.5288C69.7207 30.3042 78.5009 39.0576 89.3092 39.0576C100.118 39.0576 108.898 30.3042 108.898 19.5288ZM89.3092 27.5287C84.8876 27.5287 81.2848 23.9369 81.2848 19.5288C81.2848 15.1207 84.8876 11.5289 89.3092 11.5289C93.7308 11.5289 97.3336 15.1207 97.3336 19.5288C97.3336 23.9369 93.7308 27.5287 89.3092 27.5287Z" fill="white"/>
<path d="M6.33702 94.6289C6.75273 95.1689 7.15583 95.7466 7.65972 96.8141L6.74013 97.2788C6.61416 96.9773 6.55117 96.8392 6.4378 96.6006C4.28369 97.329 2.84762 97.6304 2.34374 97.7309L2.17998 96.7513C2.31854 96.7262 2.87282 96.6131 2.92321 96.6006V89.8565C2.78464 89.957 2.68386 90.0324 2.41932 90.1956L2.0918 89.1533C2.5075 88.9146 3.88059 88.0732 4.76238 86.4531H5.82054C6.4252 87.3448 7.47076 88.0983 8.20139 88.4625L7.65972 89.3542C7.00467 88.9774 6.02209 88.2741 5.35445 87.3071C4.6994 88.2993 3.91838 89.1156 2.98619 89.8189H4.71199V88.6258H5.63158V89.8189H7.38258V94.1391H3.89318V96.3745C4.73719 96.1736 5.19069 96.0606 5.9969 95.7968C5.75755 95.4075 5.61899 95.2191 5.45522 95.0056L6.33702 94.6289ZM6.4378 90.6101H3.89318V91.5896H6.4378V90.6101ZM6.4378 92.3055H3.89318V93.3227H6.4378V92.3055ZM11.0861 91.5269C11.0861 93.3604 11.9301 95.7089 14.0716 97.2411L13.4166 98.1579C11.3633 96.6885 10.8594 94.7293 10.6704 94.0009C10.3555 95.2317 9.75084 96.9146 7.92426 98.1579L7.19362 97.329C7.65972 97.0276 8.73047 96.3368 9.36033 94.8926C9.902 93.6493 10.091 92.3557 10.091 91.5394V90.1454H11.0861V91.5269ZM7.64712 91.2003C8.98241 89.5551 9.41071 87.5332 9.53669 86.4531L10.5696 86.5662C10.5067 87.0685 10.4059 87.6839 10.1539 88.5253H13.8701V89.4547C13.7189 90.3212 13.3284 91.5143 12.6482 92.5316L11.7916 91.9915C12.56 90.9115 12.7993 89.7937 12.8749 89.4672H9.81382C9.24695 90.8361 8.70528 91.5269 8.41554 91.8911L7.64712 91.2003Z" fill="white"/>
<path d="M29.1249 93.9264C29.3265 93.7506 29.4147 93.6376 29.5658 93.4617L30.3721 94.1273C29.5154 94.9185 28.6211 95.6093 27.6007 96.2247C28.3061 96.5512 29.1123 96.9028 30.8381 97.154L30.3595 98.1587C25.7993 97.267 24.4514 94.906 24.0357 94.165H21.743V96.8526C23.8216 96.6517 24.8167 96.4758 25.371 96.3754L25.4718 97.3047C23.0405 97.7317 20.4329 97.9578 19.4378 98.0457L19.2992 97.0159C19.9542 97.0159 20.244 96.9782 20.7101 96.9405V90.0332C20.2818 90.2216 20.0172 90.3221 19.3874 90.523L18.8457 89.5183C20.9998 89.0159 23.0027 87.9861 24.4136 86.4414H25.5852C27.122 88.1494 28.7974 88.9783 31.0775 89.5434L30.5358 90.523C30.0319 90.3597 29.717 90.2467 29.1249 89.9955V93.9264ZM28.2809 89.6188C27.0338 89.0034 25.9505 88.2247 24.9805 87.2577C23.809 88.4759 22.3225 89.242 21.6171 89.6188H24.401V88.3127H25.4466V89.6188H28.2809ZM28.1172 90.4602H21.743V91.4774H28.1172V90.4602ZM28.1172 92.2435H21.743V93.2985H28.1172V92.2435ZM25.1065 94.165C25.5852 94.8558 25.9883 95.2451 26.6937 95.7349C27.8022 95.0818 28.6337 94.3785 28.873 94.165H25.1065Z" fill="white"/>
<path d="M47.6311 88.6275H38.0321V92.5332C38.0321 94.417 37.755 96.5395 36.6968 98.0088L35.8906 97.2051C36.3315 96.5395 36.9866 95.5473 36.9866 92.5081V87.6604H41.4585V86.4297H42.5293V87.6604H47.6311V88.6275ZM41.9498 93.0356V89.067H42.9828V90.3355H47.6311V91.3025H42.9828V93.0356H46.8501V97.8833H38.725V93.0356H41.9498ZM45.8297 93.9775H39.7453V96.9162H45.8297V93.9775Z" fill="white"/>
<path d="M58.6909 96.3629C59.9884 96.2247 63.0495 95.8605 63.0495 92.2687C63.0495 91.2766 62.7471 88.5137 59.2829 88.4006C59.1696 89.8574 58.9176 92.9469 57.6201 95.0191C56.8769 96.187 56.0707 96.4759 55.5038 96.4759C54.2693 96.4759 53.2363 95.0191 53.2363 92.9469C53.2363 89.5309 55.7306 87.3457 59.0562 87.3457C63.1377 87.3457 64.2336 90.1589 64.2336 92.2813C64.2336 93.7758 63.6919 95.2577 62.5456 96.2122C61.7268 96.8903 60.4671 97.3173 59.0688 97.4555L58.6909 96.3629ZM56.0833 89.2546C54.9117 90.1086 54.3323 91.5152 54.3323 92.972C54.3323 93.826 54.6472 95.2703 55.5416 95.2703C56.0707 95.2703 56.4486 94.8056 56.7761 94.253C57.8343 92.4445 58.0358 89.8951 58.1618 88.4509C57.4186 88.589 56.7257 88.7774 56.0833 89.2546Z" fill="white"/>
<path d="M73.9588 95.4456C72.8251 95.9229 71.1118 96.4503 69.8647 96.7141L69.6758 95.6968C69.9781 95.6466 70.1419 95.6215 71.2252 95.32V91.9794H69.8899V91.0124H71.2252V88.0611H69.8269V87.1066H73.7446V88.0611H72.233V91.0124H73.5179V91.9794H72.233V95.0312C73.1274 94.7675 73.5179 94.6042 73.7824 94.4912L73.9588 95.4456ZM81.0888 86.8555V93.9386H78.9598V96.6262C78.9598 96.9024 78.985 97.028 79.3504 97.028H80.081C80.2825 97.028 80.4211 96.9652 80.4715 96.7894C80.5597 96.5006 80.5849 95.6717 80.6101 95.207L81.5926 95.408C81.4793 97.6685 81.2147 98.0202 80.4589 98.0202H78.8969C78.4056 98.0202 77.9395 97.9197 77.9395 97.0155V93.9386H76.8561C76.4026 96.2745 75.2815 97.3671 72.8125 98.1709L72.3212 97.1787C75.017 96.4252 75.6468 95.207 75.8358 93.9386H74.2989V86.8555H81.0888ZM80.081 87.7471H75.3193V88.9528H80.081V87.7471ZM80.081 89.7942H75.3193V90.9873H80.081V89.7942ZM80.081 91.8287H75.3193V93.0469H80.081V91.8287Z" fill="white"/>
<path d="M90.435 94.1028C89.4398 94.7056 87.966 95.3461 86.744 95.7354L86.6055 94.6679C87.0086 94.5549 87.4495 94.4293 88.1297 94.1781V90.1217H86.7188V89.1546H88.1297V86.4922H89.1249V89.1546H90.2712V90.1217H89.1249V93.7888C89.7547 93.5125 90.0697 93.3493 90.372 93.1734L90.435 94.1028ZM97.9555 93.3367C97.9555 94.5926 97.8421 96.828 97.5775 97.3806C97.4138 97.7197 97.1618 98.0964 96.4186 98.0964H94.7936L94.655 97.1169H96.2297C96.5824 97.1169 96.6832 96.8657 96.7335 96.6522C96.8217 96.2503 96.8973 95.6224 96.9603 94.153H96.1163C95.4108 96.0117 94.1637 97.3429 92.4001 98.1969L91.7703 97.4183C93.5843 96.5643 94.655 95.3838 95.2093 94.153H94.1385C92.8032 96.3382 90.7877 97.1043 90.0067 97.3932L89.5532 96.602C90.3468 96.3382 91.7955 95.8108 93.1182 94.153H91.9214C91.0522 95.0321 90.2964 95.4089 89.8555 95.6349L89.3894 94.894C90.7499 94.2912 91.4428 93.6883 92.1986 92.4827H90.2208V91.6664H98.3586V92.4827H93.1434C92.9418 92.8343 92.8158 93.0478 92.6017 93.3367H97.9555ZM97.5146 86.8815V90.9254H90.9641V86.8815H97.5146ZM96.5572 87.6601H91.8962V88.5769H96.5572V87.6601ZM96.5572 89.2677H91.8962V90.1844H96.5572V89.2677Z" fill="white"/>
<path d="M114.205 96.8272H115.238V97.7565H103.586V96.8272H104.606V93.6373H114.205V96.8272ZM109.431 86.8681V87.697H107.365V88.5887H109.015V91.0251H107.365V92.0047H109.507V92.821H104.039V86.8681H109.431ZM106.483 87.697H104.972V88.5887H106.483V87.697ZM108.083 89.3171H104.972V90.2715H108.083V89.3171ZM106.483 91.0251H104.972V92.0047H106.483V91.0251ZM107.529 94.5415H105.576V96.8272H107.529V94.5415ZM110.401 94.5415H108.436V96.8272H110.401V94.5415ZM109.154 89.5306C110.275 88.5887 110.766 87.7472 111.182 86.416L112.152 86.5793C112.064 86.9184 111.963 87.2575 111.724 87.7849H115.251V88.7143H111.207C110.653 89.6185 110.149 90.0329 109.834 90.2841L109.154 89.5306ZM114.923 92.1177H110.401V91.1883H114.923V92.1177ZM113.261 94.5415H111.321V96.8272H113.261V94.5415Z" fill="white"/>
<path d="M120.328 91.5528C120.857 90.9751 121.197 90.3848 121.437 89.7318L122.306 89.9076C122.029 90.6988 121.588 91.5026 121.034 92.1305L120.328 91.5528ZM123.717 86.4414V87.0442H125.871V87.8354H123.717V88.6141H126.312V89.4053H123.981V91.4272C123.981 92.0928 123.49 92.1807 123.251 92.1807H122.142L122.004 91.3016H122.797C122.999 91.3016 123.011 91.2137 123.011 91.0505V89.4053H120.429V88.6141H122.734V86.4414H123.717ZM130.746 97.895H121.865V92.5826H130.746V97.895ZM129.738 93.3487H122.898V94.1148H129.738V93.3487ZM129.738 94.7678H122.898V95.559H129.738V94.7678ZM129.738 96.2247H122.898V97.0912H129.738V96.2247ZM125.304 89.7067C125.644 90.3221 125.82 90.7114 126.009 91.3016L125.128 91.6407C125.014 91.1886 124.876 90.7365 124.51 89.9453L125.304 89.7067ZM125.972 91.3519C127.181 90.9625 127.76 90.6109 128.302 90.2593C127.886 89.782 127.521 89.3173 127.08 88.2499L127.899 87.8731C128.315 88.815 128.667 89.2671 129.058 89.7318C129.524 89.3173 130.217 88.7271 130.607 87.6722H126.69V86.8433H131.628V87.6847C131.149 88.9657 130.456 89.6816 129.713 90.3472C130.229 90.7491 130.809 91.176 132.182 91.603L131.678 92.4947C130.192 91.9547 129.461 91.3519 128.97 90.9249C128.365 91.3268 127.71 91.7663 126.35 92.1933L125.972 91.3519Z" fill="white"/>
<path d="M148.093 87.4707C147.601 90.7988 145.762 91.8663 144.137 92.6951L143.407 91.7909C145.85 90.7862 146.379 89.5429 146.657 88.5508H137.688V87.4707H148.093ZM137.927 96.5758C141.391 95.0939 141.832 92.6449 141.819 89.8569H142.991C142.966 92.3058 142.777 95.5585 138.695 97.5177L137.927 96.5758Z" fill="white"/>
<path d="M161.71 87.9988L163.109 89.5812C162.731 91.5655 162.34 93.0349 161.106 94.5168C160.514 95.2452 158.863 96.9909 155.676 97.4807L155.135 96.4132C159.191 95.8103 161.408 93.6126 161.962 89.0914H154.127V87.9988H161.71ZM165.754 87.6597C165.754 88.6267 164.973 89.4054 164.003 89.4054C163.033 89.4054 162.252 88.6267 162.252 87.6597C162.252 86.6927 163.058 85.9141 164.003 85.9141C164.948 85.9141 165.754 86.6801 165.754 87.6597ZM163.046 87.6597C163.046 88.1872 163.487 88.6267 164.016 88.6267C164.545 88.6267 164.986 88.1872 164.986 87.6597C164.986 87.1323 164.545 86.6927 164.016 86.6927C163.487 86.6927 163.046 87.1197 163.046 87.6597Z" fill="white"/>
<path d="M172.493 94.0524H171.334V87.3084H172.493V94.0524ZM178.917 92.4449C178.917 96.6395 175.466 97.3302 172.254 97.5312L171.913 96.4386C175.315 96.2753 177.733 95.7227 177.733 92.5202V87.1074H178.917V92.4449Z" fill="white"/>
<path d="M15.0031 106.963H0.554273C0.251942 106.963 0 107.214 0 107.515V111.245C0 111.547 0.251942 111.798 0.554273 111.798H4.39639C4.69872 111.798 4.95066 112.037 4.95066 112.351V138.297C4.95066 138.598 5.2026 138.85 5.50493 138.85H10.0651C10.3674 138.85 10.6194 138.598 10.6194 138.297V112.351C10.6194 112.049 10.8587 111.798 11.1736 111.798H15.0157C15.3181 111.798 15.57 111.547 15.57 111.245V107.515C15.57 107.214 15.3181 106.963 15.0157 106.963H15.0031Z" fill="white"/>
<path d="M33.1179 120.236H29.4899C28.8474 120.236 28.3184 120.801 28.3184 121.505V123.79C28.3184 124.494 28.8474 125.059 29.4899 125.059H33.1179C33.7603 125.059 34.2894 124.494 34.2894 123.79V121.505C34.2894 120.801 33.7603 120.236 33.1179 120.236Z" fill="white"/>
<path d="M34.6417 134.001H27.3354C27.033 134.001 26.7811 133.762 26.7811 133.448V112.337C26.7811 112.035 27.0204 111.784 27.3354 111.784H34.3268C34.6291 111.784 34.881 111.533 34.881 111.232V107.502C34.881 107.2 34.6291 106.949 34.3268 106.949H21.6793C21.3769 106.949 21.125 107.2 21.125 107.502V138.271C21.125 138.572 21.3769 138.823 21.6793 138.823H34.6417C34.944 138.823 35.196 138.572 35.196 138.271V134.541C35.196 134.239 34.944 133.988 34.6417 133.988V134.001Z" fill="white"/>
<path d="M54.1553 122.322C54.0167 122.209 53.9285 122.021 53.9159 121.808C53.9159 121.594 53.9663 121.393 54.0923 121.255C54.445 120.866 54.7473 120.414 54.9993 119.886C55.6165 118.618 55.9315 117.073 55.9315 115.327C55.9315 113.808 55.7551 112.502 55.415 111.434C55.0623 110.354 54.571 109.462 53.9285 108.797C53.2987 108.144 52.5302 107.666 51.6736 107.39C50.8422 107.126 49.9226 106.988 48.9527 106.988H41.3062C41.0039 106.988 40.752 107.29 40.752 107.654V137.908C40.752 138.285 41.0039 138.573 41.3062 138.573H49.0157C50.4139 138.573 51.6107 138.31 52.5806 137.795C53.5506 137.28 54.3568 136.564 54.9615 135.685C55.5787 134.806 56.007 133.776 56.259 132.608C56.4983 131.478 56.6243 130.285 56.6243 129.041C56.6243 126.869 56.2086 125.098 55.4024 123.767C55.0371 123.176 54.6214 122.674 54.1427 122.297L54.1553 122.322ZM45.4759 112.15C45.4759 111.685 45.8286 111.321 46.2821 111.321H47.0883C48.537 111.321 49.5825 111.622 50.1998 112.2C50.7918 112.765 51.0942 113.833 51.0942 115.365C51.0942 116.897 50.7667 117.952 50.099 118.53C49.4062 119.145 48.222 119.459 46.5718 119.459H46.2821C45.8412 119.459 45.4759 119.082 45.4759 118.63V112.162V112.15ZM45.5011 125.123C45.5011 124.558 45.879 124.106 46.3451 124.106H47.1891C48.7259 124.106 49.8345 124.47 50.4769 125.186C51.1068 125.889 51.4217 127.183 51.4217 129.054C51.4217 130.925 51.069 132.219 50.3761 132.922C49.6455 133.676 48.3858 134.052 46.6474 134.052H46.3325C45.8664 134.052 45.4885 133.6 45.4885 133.035V125.111L45.5011 125.123Z" fill="white"/>
<path d="M179.458 106.963H174.898C174.592 106.963 174.344 107.21 174.344 107.515V138.272C174.344 138.577 174.592 138.824 174.898 138.824H179.458C179.764 138.824 180.012 138.577 180.012 138.272V107.515C180.012 107.21 179.764 106.963 179.458 106.963Z" fill="white"/>
<path d="M166.799 106.963H162.226C161.924 106.963 161.672 107.214 161.672 107.515V119.484C161.672 119.785 161.432 120.037 161.117 120.037H157.981C157.678 120.037 157.427 119.798 157.427 119.484V107.515C157.427 107.214 157.175 106.963 156.872 106.963H152.312C152.01 106.963 151.758 107.214 151.758 107.515V138.284C151.758 138.586 152.01 138.837 152.312 138.837H156.872C157.175 138.837 157.427 138.586 157.427 138.284V125.587C157.427 125.286 157.666 125.035 157.981 125.035H161.117C161.42 125.035 161.672 125.274 161.672 125.587V138.284C161.672 138.586 161.924 138.837 162.226 138.837H166.799C167.101 138.837 167.353 138.586 167.353 138.284V107.515C167.353 107.214 167.101 106.963 166.799 106.963Z" fill="white"/>
<path d="M93.344 106.574C88.7208 106.574 85.1055 110.329 85.1055 115.127V138.159C85.1055 138.461 85.3574 138.712 85.6597 138.712H89.9932C90.2955 138.712 90.5474 138.461 90.5474 138.159V115.428C90.5474 113.13 91.5804 111.811 93.3692 111.811C95.158 111.811 96.2161 113.13 96.2161 115.428V138.159C96.2161 138.461 96.4681 138.712 96.7704 138.712H101.104C101.406 138.712 101.658 138.461 101.658 138.159V115.127C101.658 110.329 98.0175 106.574 93.3818 106.574H93.344Z" fill="white"/>
<path d="M70.178 106.574C65.5548 106.574 61.9395 110.329 61.9395 115.127V138.159C61.9395 138.461 62.1914 138.712 62.4937 138.712H66.8271C67.1295 138.712 67.3814 138.461 67.3814 138.159V115.428C67.3814 113.13 68.4144 111.811 70.2032 111.811C71.9919 111.811 73.0501 113.13 73.0501 115.428V124.345H70.7574C70.052 124.345 69.4851 124.91 69.4851 125.613V127.899C69.4851 128.602 70.052 129.167 70.7574 129.167H73.0501V138.159C73.0501 138.461 73.302 138.712 73.6044 138.712H77.9378C78.2401 138.712 78.4921 138.461 78.4921 138.159V115.127C78.4921 110.329 74.8515 106.574 70.2158 106.574H70.178Z" fill="white"/>
<path d="M115.906 106.574C111.283 106.574 107.668 110.329 107.668 115.127V138.159C107.668 138.461 107.92 138.712 108.222 138.712H112.556C112.858 138.712 113.11 138.461 113.11 138.159V115.428C113.11 113.13 114.143 111.811 115.932 111.811C117.72 111.811 118.779 113.13 118.779 115.428V124.345H116.486C115.781 124.345 115.214 124.91 115.214 125.613V127.899C115.214 128.602 115.781 129.167 116.486 129.167H118.779V138.159C118.779 138.461 119.031 138.712 119.333 138.712H123.666C123.969 138.712 124.221 138.461 124.221 138.159V115.127C124.221 110.329 120.58 106.574 115.944 106.574H115.906Z" fill="white"/>
<path d="M145.61 126.931C145.472 126.127 145.232 125.386 144.88 124.721C144.527 124.068 144.061 123.44 143.481 122.875C142.902 122.309 142.159 121.769 141.252 121.254L137.586 119.195C136.376 118.542 135.873 117.901 135.684 117.487C135.394 116.897 135.255 116.13 135.255 115.239C135.255 114.799 135.293 114.372 135.369 113.97C135.444 113.569 135.57 113.229 135.759 112.928C135.948 112.614 136.213 112.375 136.565 112.174C136.918 111.974 137.359 111.873 137.888 111.873C138.795 111.873 139.438 112.25 139.815 112.991C140.193 113.732 140.382 114.824 140.382 116.218C140.382 116.457 140.584 116.658 140.811 116.658H144.64C144.88 116.658 145.068 116.47 145.068 116.218V115.364C145.068 113.882 144.88 112.589 144.514 111.509C144.136 110.441 143.62 109.55 142.952 108.859C142.297 108.181 141.516 107.691 140.634 107.39C139.753 107.088 138.77 106.938 137.724 106.938C135.469 106.938 133.668 107.691 132.371 109.186C131.048 110.705 130.368 113.041 130.368 116.13C130.368 117.411 130.494 118.554 130.746 119.521C130.998 120.513 131.388 121.393 131.917 122.134C132.446 122.875 133.101 123.528 133.87 124.068C134.638 124.608 135.558 125.123 136.616 125.575C137.384 125.914 138.052 126.24 138.606 126.579C139.135 126.906 139.564 127.258 139.878 127.647C140.193 128.024 140.408 128.438 140.546 128.915C140.685 129.393 140.748 129.958 140.748 130.611C140.748 131.816 140.471 132.708 139.941 133.286C139.375 133.889 138.72 134.19 138.002 134.19C137.384 134.19 136.868 134.077 136.465 133.851C136.074 133.637 135.759 133.336 135.532 132.947C135.318 132.595 135.155 132.13 135.079 131.578C134.991 131.025 134.953 130.385 134.953 129.681V128.777C134.953 128.513 134.751 128.3 134.5 128.3H130.506C130.254 128.3 130.053 128.513 130.053 128.777V130.02C130.053 132.896 130.645 135.144 131.829 136.702C132.988 138.234 134.94 139 137.611 139C140.282 139 142.196 138.246 143.645 136.777C145.119 135.27 145.862 132.834 145.862 129.556C145.862 128.601 145.799 127.71 145.661 126.931H145.61Z" fill="white"/>
</g>
<defs>
<clipPath id="clip0_420_497">
<rect width="180" height="139" fill="white"/>
</clipPath>
</defs>
</svg>
