<svg width="40" height="40" viewBox="0 0 40 40" fill="none" xmlns="http://www.w3.org/2000/svg">
<g clip-path="url(#clip0_536_5624)">
<path d="M31.6667 5.00033H24.7C24 3.06699 22.1667 1.66699 20 1.66699C17.8333 1.66699 16 3.06699 15.3 5.00033H8.33333C6.5 5.00033 5 6.50033 5 8.33366V31.667C5 33.5003 6.5 35.0003 8.33333 35.0003H31.6667C33.5 35.0003 35 33.5003 35 31.667V8.33366C35 6.50033 33.5 5.00033 31.6667 5.00033ZM20 5.00033C20.9167 5.00033 21.6667 5.75033 21.6667 6.66699C21.6667 7.58366 20.9167 8.33366 20 8.33366C19.0833 8.33366 18.3333 7.58366 18.3333 6.66699C18.3333 5.75033 19.0833 5.00033 20 5.00033ZM16.6667 28.3337L10 21.667L12.35 19.317L16.6667 23.617L27.65 12.6337L30 15.0003L16.6667 28.3337Z" fill="white"/>
</g>
<defs>
<clipPath id="clip0_536_5624">
<rect width="40" height="40" fill="white"/>
</clipPath>
</defs>
</svg>
